#N canvas 359 69 923 717 12;
#N canvas 29 732 450 235 players 1;
#X obj 10 10 wavPlayer 0 0;
#X restore 447 378 pd players;
#X obj 115 235 *~;
#X obj 116 271 dac~;
#X obj 198 88 bng 19 250 50 0 empty empty empty 0 -10 0 12 #fcfcfc #000000 #000000;
#X msg 131 152 0.5;
#X obj 198 112 t b b;
#X msg 234 177 0;
#X obj 134 209 line~;
#X msg 134 185 \$1 10;
#X obj 234 153 pipe 150;
#X obj 56 185 osc~ 300;
#X obj 197 48 r gd-bang;
#X obj 24 75 r sampID;
#X obj 24 99 t b f;
#X obj 56 159 mtof;
#X obj 56 135 + 50;
#X obj 48 548 catch~ out;
#X obj 48 632 dac~;
#X text 25 569 all outs from sample players;
#X text 661 230 godot sends id and sample path;
#X obj 605 204 r gd-initSamp;
#X text 518 463 g+id for direct play;
#X obj 605 286 s pd-players;
#X obj 559 418 bng 19 250 50 0 empty empty empty 0 -10 0 12 #fcfcfc #000000 #000000;
#X msg 551 262 clear;
#X msg 605 261 obj 10 10 wavPlayer \$1 \$2;
#X obj 559 444 s g400;
#X obj 462 539 s initSoundFiler;
#X obj 462 514 bng 19 250 50 0 empty empty empty 0 -10 0 12 #fcfcfc #000000 #000000;
#X obj 47 599 *~ 0.8;
#X obj 301 574 wavPlayer;
#X obj 605 233 list;
#X msg 411 153 g400 C:/syncthings/workBorg_audioCorpusEx/utt-small/utterance-04.wav, f 70;
#X text 423 129 example input message from Godot \, ID \, path;
#X text 445 345 dynamically created wavPlayer stored in here;
#X text 486 506 hack \, as wavPlayer wasn't initialising without a nudge. sends bang to all instances.;
#N canvas 625 163 450 481 initThings 0;
#X msg 41 31 midi-dialog 2 0 0 0 0 0 0 0 0 4 0 0 0 0 0 0 0 0 0 0;
#X obj 39 92 s pd;
#X obj 44 191 notein;
#X text 215 71 nanoKontrol \; notes 1-16 \; x ctl 1 \, y ctl 2 \; as nanoPad doesn't have midi in \; just gonna go with godot.;
#X restore 188 376 pd initThings;
#X connect 1 0 2 0;
#X connect 1 0 2 1;
#X connect 3 0 5 0;
#X connect 4 0 8 0;
#X connect 5 0 4 0;
#X connect 5 1 9 0;
#X connect 6 0 8 0;
#X connect 7 0 1 1;
#X connect 8 0 7 0;
#X connect 9 0 6 0;
#X connect 10 0 1 0;
#X connect 11 0 3 0;
#X connect 12 0 13 0;
#X connect 13 1 15 0;
#X connect 14 0 10 0;
#X connect 15 0 14 0;
#X connect 16 0 29 0;
#X connect 20 0 31 0;
#X connect 23 0 26 0;
#X connect 24 0 22 0;
#X connect 25 0 22 0;
#X connect 28 0 27 0;
#X connect 29 0 17 0;
#X connect 29 0 17 1;
#X connect 31 0 25 0;
