#N canvas 119 139 639 465 12;
#X obj 152 352 soundfiler;
#X obj 410 292 bng 19 250 50 0 empty empty empty 0 -10 0 12 #fcfcfc #000000 #000000;
#X obj 169 219 list prepend read -resize;
#X obj 169 293 list trim;
#X obj 403 223 inlet;
#N canvas 0 50 450 250 (subpatch) 0;
#X array \$0-array1 4674 float 2;
#X coords 0 1 4674 -1 200 140 1;
#X restore 244 37 graph;
#X obj 410 344 tabplay~ \$0-array1;
#X obj 169 243 list append \$0-array1;
#X obj 410 368 throw~ out;
#X obj 169 193 symbol \$2;
#X obj 456 222 r \$1;
#X obj 264 320 print wavPlayer;
#X obj 147 113 loadbang;
#X obj 149 137 t b b;
#X obj 82 162 pipe 10;
#X obj 38 230 bng 19 250 50 0 empty empty empty 0 -10 0 12 #fcfcfc #000000 #000000;
#X obj 23 194 r initSoundFiler;
#X obj 533 406 s sampler;
#X obj 533 377 symbol \$1;
#X connect 1 0 6 0;
#X connect 2 0 7 0;
#X connect 3 0 0 0;
#X connect 4 0 1 0;
#X connect 6 0 8 0;
#X connect 6 1 18 0;
#X connect 7 0 3 0;
#X connect 9 0 2 0;
#X connect 10 0 1 0;
#X connect 12 0 13 0;
#X connect 13 0 14 0;
#X connect 13 1 9 0;
#X connect 14 0 9 0;
#X connect 15 0 9 0;
#X connect 16 0 15 0;
#X connect 18 0 17 0;
